<svg version="1.1"
	 xmlns="http://www.w3.org/2000/svg" xmlns:xlink="http://www.w3.org/1999/xlink" xmlns:a="http://ns.adobe.com/AdobeSVGViewerExtensions/3.0/"
	 x="0px" y="0px" width="21.4px" height="32px" viewBox="0 0 314.7 420" style="enable-background:new 0 0 314.7 420;"
	 xml:space="preserve">
<style type="text/css">
	.st0{fill:#315025;}
</style>
<defs>
</defs>
<path class="st0" d="M153.2,219.5c-36.3,0-65.7-29.4-65.7-65.7s29.4-65.7,65.7-65.7s65.7,29.4,65.7,65.7
	C218.9,190,189.5,219.5,153.2,219.5z M167.7,0h-21C56.1,4.6-21.9,100.4,5.6,189.6C20.5,232.2,43,270.6,68.5,307
	c9,12.9,18.3,25.4,27.9,37.9c8.4,11,17,21.9,25.6,32.7c11.2,14.1,22.4,28.2,33.3,42.4h4.6c10.8-14.3,21.9-28.5,33.1-42.8
	c8.6-10.9,17.1-21.8,25.5-32.8c9.5-12.4,18.8-24.8,27.8-37.5c26.6-37.9,50-77.8,64.6-122.5C333.1,95.8,256.3,4.6,167.7,0z"/>
</svg>
