<svg xmlns="http://www.w3.org/2000/svg" viewBox="0 0 500 500"><defs><style>.cls-1{fill:#e0e1e2;}.cls-2{fill:#bababa;}</style></defs><title>Asset 1</title><g id="Layer_2" data-name="Layer 2"><g id="Layer_1-2" data-name="Layer 1"><rect class="cls-1" width="500" height="500"/><path class="cls-2" d="M315.33,331.67a8.16,8.16,0,0,1-8.16-8.17V307.17a24.53,24.53,0,0,0-24.5-24.5H217.33a24.53,24.53,0,0,0-24.5,24.5V323.5a8.17,8.17,0,1,1-16.33,0V307.17a40.88,40.88,0,0,1,40.83-40.84h65.34a40.88,40.88,0,0,1,40.83,40.84V323.5A8.17,8.17,0,0,1,315.33,331.67Z"/><path class="cls-2" d="M250,250a40.84,40.84,0,1,1,40.83-40.83A40.88,40.88,0,0,1,250,250Zm0-65.33a24.5,24.5,0,1,0,24.5,24.5A24.53,24.53,0,0,0,250,184.67Z"/></g></g></svg>